<svg xmlns="http://www.w3.org/2000/svg" viewBox="0 0 226.14 104.35"><defs><style>.cls-1{isolation:isolate;}.cls-2,.cls-3{fill:#144733;}.cls-3{mix-blend-mode:multiply;}</style></defs><title>Asset 1</title><g class="cls-1"><g id="Layer_2" data-name="Layer 2"><g id="Camada_1" data-name="Camada 1"><path class="cls-2" d="M88,101.87c-.34,0-.59-.1-.7-.36a2.34,2.34,0,0,1-1.45.48C84.34,102,83,100.91,83,98.6c0-2.07,1.37-3.46,2.92-3.46a2,2,0,0,1,1.33.47V92.07h-.67v-.36c1.39,0,2.07,0,2.07,1v8.81h.64v.36Zm-.73-5.72a1.84,1.84,0,0,0-1.24-.55c-.82,0-1.55.85-1.55,2.35v1.43c0,1.52.71,2.09,1.5,2.1a2.21,2.21,0,0,0,1.29-.44Z"/><path class="cls-2" d="M93.3,101.51a2,2,0,0,0,1.85-1.21h.51A2.56,2.56,0,0,1,93,102a3.07,3.07,0,0,1-2.92-3.36,3.26,3.26,0,0,1,3.14-3.5,2.48,2.48,0,0,1,2.63,2.35,1.07,1.07,0,0,1-1.14,1.17H91.61v.56c0,1.19.32,1.77.81,2.09A1.92,1.92,0,0,0,93.3,101.51Zm-1.69-3.24h2.13c.58,0,.73-.6.73-1,0-.69-.26-1.77-1.22-1.77s-1.63.64-1.63,2Z"/><path class="cls-2" d="M96.74,100c-.07-.55.22-.88.67-.88a.6.6,0,0,1,.63.69c-.12,1.3.54,1.85,1.41,1.85.6,0,1.55-.44,1.55-1.29,0-.55-.77-.92-1.85-1.28C97.84,98.67,97,98,97,97s1.1-1.95,2.74-1.89a2,2,0,0,1,2.07,1.32.72.72,0,0,1-.59,1,.59.59,0,0,1-.64-.67,1,1,0,0,0-1.08-1.29c-.63,0-1.56.36-1.56,1.18s1.26,1,1.78,1.17c1.52.58,2.24,1.17,2.24,2.29S101,102.08,99.2,102A2.49,2.49,0,0,1,96.74,100Z"/><path class="cls-2" d="M107.87,101.87c-.34,0-.59-.1-.7-.36a2.34,2.34,0,0,1-1.45.48c-1.52,0-2.83-1.08-2.83-3.39,0-2.07,1.37-3.46,2.92-3.46a2,2,0,0,1,1.33.47V92.07h-.67v-.36c1.39,0,2.07,0,2.07,1v8.81h.65v.36Zm-.73-5.72a1.84,1.84,0,0,0-1.24-.55c-.82,0-1.55.85-1.55,2.35v1.43c0,1.52.71,2.09,1.5,2.1a2.21,2.21,0,0,0,1.29-.44Z"/><path class="cls-2" d="M113.15,101.51a2,2,0,0,0,1.85-1.21h.51a2.56,2.56,0,0,1-2.62,1.7A3.07,3.07,0,0,1,110,98.65a3.26,3.26,0,0,1,3.14-3.5,2.48,2.48,0,0,1,2.63,2.35,1.07,1.07,0,0,1-1.14,1.17h-3.14v.56c0,1.19.32,1.77.81,2.09A1.92,1.92,0,0,0,113.15,101.51Zm-1.69-3.24h2.13c.58,0,.73-.6.73-1,0-.69-.26-1.77-1.22-1.77s-1.63.64-1.63,2Z"/><path class="cls-2" d="M120.1,96.57l1.39-1.29h.75v5.91c0,.12.08.27.15.27h.8v.4H120v-.4h.78c.07,0,.14-.19.14-.33V96.48c-.18.15-.4.32-.56.47Z"/><path class="cls-2" d="M124.08,104.08a7,7,0,0,0,4.12-3.64,2.62,2.62,0,0,1-1.07.22,2.66,2.66,0,0,1-2.72-2.76,2.74,2.74,0,0,1,2.79-2.76A2.66,2.66,0,0,1,130,98.07c0,3-3.18,5.72-5.91,6.28Zm1.73-6.13c0,1.44.64,2.24,1.44,2.24,1.26,0,1.39-1,1.39-2,0-1.25-.41-2.66-1.43-2.65S125.78,96.63,125.81,97.95Z"/><path class="cls-2" d="M134.31,96.68c0-.56-.22-1.1-.85-1.13a1,1,0,0,0-.95.86c-.08.49-.27.82-.71.8a.6.6,0,0,1-.54-.82,2.27,2.27,0,0,1,2.21-1.26A1.94,1.94,0,0,1,135.63,97a2.46,2.46,0,0,1-1,1.81,2.92,2.92,0,0,1,1.69,2.54,2.86,2.86,0,0,1-3,3,2.42,2.42,0,0,1-2.65-2.1.63.63,0,0,1,.7-.62.6.6,0,0,1,.6.66c0,1.11.62,1.63,1.34,1.63,1.06,0,1.55-1.23,1.55-2.39s-.45-2.37-1.61-2.11c-.37.08-.75.11-.77-.44A1.92,1.92,0,0,0,134.31,96.68Z"/><path class="cls-2" d="M138.21,95.93a.8.8,0,0,1,.81-.64h3.84v1.18h-.48V95.7h-2.5a.33.33,0,0,0-.27.22L139.17,98a3,3,0,0,1,1.14-.19c1.36,0,2.8.88,2.8,3.31a3.19,3.19,0,0,1-3.27,3.25,2.87,2.87,0,0,1-2.7-1.66.71.71,0,0,1,.6-1.07.73.73,0,0,1,.74.63c.19,1.06.7,1.66,1.36,1.66.81,0,1.76-.52,1.76-2.18v-1.36c0-1.52-.59-2.18-1.3-2.18a1.55,1.55,0,0,0-1.5,1.1c-.22.48-.33.84-.95.84a1.74,1.74,0,0,1-.62-.12Z"/><path class="cls-2" d="M4.73,84.13a5.77,5.77,0,0,1,4.57,1.8c.49.49,1,1.31,1.85,1.31s1.25-.54,1.5-1.52c.14-.6.63-1.85,1.8-1.5a.74.74,0,0,1,.46.57c0,1.25-1.8,3.75-4.81,3.81s-3.73-2.91-6-2.91a2.16,2.16,0,0,0-2,1.6c-.27.68-.57,1-1.6.41.82-2.77,3.64-4.76,6-5.71C2,81.22,0,77.85,0,74V70.26c0-4.14,2.37-8,7.75-8,4.73,0,7.45,3.89,7.45,8V74a8,8,0,0,1-6.28,8A13.53,13.53,0,0,0,4.73,84.13ZM3,74c0,5,1.41,7.15,4.76,7.13,3.56,0,4.38-3.56,4.38-7.13V70.26c0-3.81-1.17-7.18-4.41-7.18C4,63.08,3,66.4,3,70.26Z"/><path class="cls-2" d="M32.58,69.09c0,8.76-.49,12.89-7.15,12.89s-7-4.05-7-12.54V64.36c0-.54.05-1.09-.52-1.09H17v-.73h5.85v.73H22c-.57,0-.6.24-.6,1.12v6.77c0,6.75.41,9.6,4.81,9.63,4.57,0,5.11-3.89,5.11-9.76V63.27H29.67v-.73H34.3v.73H32.58Z"/><path class="cls-2" d="M36.82,64.36c0-.54,0-1.09-.54-1.09h-.9v-.73h5.85v.73h-.84c-.57,0-.6.24-.6,1.12V79.7c0,.65.08,1.11.63,1.11h.82v.76H35.38v-.76h.82c.63,0,.63-.49.63-1.14Z"/><path class="cls-2" d="M44.47,63.27H43.21v-.73H45c2.23,0,2.64.65,3.7,2.29l8.87,13.3V63.27H56.35v-.73h3.29v.73H58.5V81.58H56.14L45.47,65.47V80.81h1.17v.76H43.21v-.76h1.25Z"/><path class="cls-2" d="M67.18,63.3H64.65c-.92,0-1.31,1.14-1.44,2.28-.14.68-.54,1.36-2,.93l.22-4H76l.19,4.11c-1.77.46-2-.84-2.09-2s-.6-1.39-1.2-1.39H70.14V79.73c0,.65.08,1.12.63,1.12h.82v.76H65.73v-.76h.82c.63,0,.63-.49.63-1.14Z"/><path class="cls-2" d="M84.64,62.54H86.3L92,79.84c.14.41.33,1,.84,1h1v.76H88v-.76h.87c.25,0,.3-.24.25-.41l-1.9-6.23H81.7l-2.37,6.64h1.44v.76H76.61v-.76h1.63Zm2.29,10.64L84.56,66l-2.5,7.21Z"/><path class="cls-2" d="M103.89,63.3h-1.63v-.76h6.23c6.45,0,8.13,5.44,8.13,9.55,0,4.81-1.71,9.49-8.13,9.49h-6.23v-.76h1.63Zm2.94,0V80.81h1.66c3.89,0,5.14-4.22,5.14-7.4V70.7c0-3-2.12-7.4-5.14-7.4Z"/><path class="cls-2" d="M122.87,71.54h3.59c.27,0,.84-.05,1-2h.9v4.81h-.9c0-.79-.14-2.07-1-2.07h-3.59v8.51H128c.92,0,1.31-1.14,1.44-2.28.14-.68.54-1.36,2-.93l-.22,4h-12.7v-.76h1.39V63.3h-1.39v-.76h12.35l.19,4.11c-1.71.54-2-.84-2.09-2s-.6-1.39-1.2-1.39h-4.9Z"/><path class="cls-2" d="M149.28,79l5.36-15.7H153v-.73h4.62v.73h-1.71l-6,17.57h1.31v.73h-5.88v-.73h1.52L141.5,64.36c-.16-.52-.27-1.09-1-1.09h-.63v-.73h5.85v.73h-.84c-.57,0-.57.3-.3,1.12Z"/><path class="cls-2" d="M159.4,73.93V70c0-2.67,1.58-7.89,7.64-7.89s7.51,5.22,7.51,7.86v3.92c0,2.67-1.44,8-7.51,8S159.4,76.6,159.4,73.93Zm3.07,0c0,2.48.76,7.21,4.57,7.21s4.54-4.71,4.54-7.21V70c0-2.5-.68-7-4.54-7s-4.57,4.54-4.57,7Z"/><path class="cls-2" d="M178.08,63.3h-1.63v-.76h6.23c6.45,0,8.13,5.44,8.13,9.55,0,4.81-1.71,9.49-8.13,9.49h-6.23v-.76h1.63Zm2.94,0V80.81h1.66c3.89,0,5.14-4.22,5.14-7.4V70.7c0-3-2.12-7.4-5.14-7.4Z"/><path class="cls-2" d="M197.12,72.44v7.29c0,.65.08,1.12.63,1.12h.82v.76h-5.85v-.76h.82c.63,0,.6-.49.6-1.14V63.27h-1.28v-.73h6.77c3.94,0,5.9,2.58,5.9,5.11A5.37,5.37,0,0,1,202.4,72c3,.87,3.4,4,3.4,7,0,.3-.22,2.09.57,1.93.6-.14.84-1.09,1-2.53h.71c-.16,2.45-.92,3.51-2.39,3.51-1.2,0-2.86-.41-2.86-2.69,0-2.88-.05-6.77-4.16-6.77Zm0-.79h1.2c2.45,0,4.22-1.25,4.22-3.16V66.94c0-1.71-1.36-3.56-3-3.67h-2.39Z"/><path class="cls-2" d="M217,62.54h1.66l5.71,17.3c.14.41.33,1,.84,1h1v.76h-5.77v-.76h.87c.24,0,.3-.24.24-.41l-1.9-6.23H214l-2.37,6.64h1.44v.76h-4.16v-.76h1.63Zm2.29,10.64L216.89,66l-2.5,7.21Z"/><path class="cls-2" d="M117.44,38.59l0,0h0Z"/><path class="cls-2" d="M117.44,38.59l0,0h0Z"/><path class="cls-3" d="M119.85,39.47c-.37-.17-.74-.31-1.09-.44C115.7,32.8,111,32.94,111,32.94l0,.06h0c.06.11.11.23.18.34l.15.25a7.87,7.87,0,0,0,.45.67l.17.22.27.34.29.32.33.35.27.26a15.69,15.69,0,0,0,3,2.2l.14.08c.38.21.73.39,1,.54a12.43,12.43,0,0,0-2.49-.46,10.92,10.92,0,0,0-7.45-4.33h0l0,0,0,0,0,0A8.56,8.56,0,0,0,108.4,35l.2.21.33.31.21.19.14.12.21.17.51.39c.18.13.37.26.57.38l.3.18h0l.32.18.34.17.36.16.37.15.38.14.4.13c.27.08.56.15.85.21l.1,0a6,6,0,0,0-4,1.33h0l-.11.06a8.7,8.7,0,0,0-5.07,3.26h0v0a9.45,9.45,0,0,0,2.16-.92,12.12,12.12,0,0,0-2.95,7.62l0,0h0l.33-.21.06,0,0,0,.07-.05.11-.08.08-.06.09-.07.08-.07.17-.14.1-.08.12-.1.21-.18h0l.33-.31a13.92,13.92,0,0,0,2.35-3.08l.2-.37c.14-.26.27-.53.4-.81l.08-.19c.06-.14.12-.27.17-.41l.1-.26.1-.26a17,17,0,0,0,.82-3.21,7.6,7.6,0,0,1,2.69-1,14.61,14.61,0,0,0-4.11,10.44v.07a4.64,4.64,0,0,0,.42-.41l.14-.15.31-.36.14-.17a12.66,12.66,0,0,0,1.1-1.71l.15-.29.18-.37.18-.39a16.82,16.82,0,0,0,.83-2.32c0-.13.07-.26.11-.4s.12-.46.17-.7.08-.38.12-.58l0-.24c.06-.33.11-.67.16-1s.05-.42.08-.63,0-.47.06-.72h0s0,0,0,0a8.71,8.71,0,0,1,2.86.1c-.49.62-4.76,6.28-5.14,11.5a0,0,0,0,1,0,0,11.34,11.34,0,0,0,1.92-1.93l.31-.39.36-.51.19-.29.09-.15.19-.31.24-.41c.19-.35.38-.72.56-1.12h0c.14-.32.28-.66.41-1l.18-.54c.06-.18.11-.37.17-.56s.13-.51.19-.78l0-.13a15.82,15.82,0,0,0,.32-3.37,17,17,0,0,1,2.7.78c-.48.33-4.15,3.09-2.69,10.72,0,0,2.83-2.39,2.83-8.73,0-.62,0-1.27-.09-2q.58.22,1.22.49a19.58,19.58,0,0,1,9.31,8.93.75.75,0,0,0,.4-.26C128.26,47,127,42.62,119.85,39.47Zm-2.44-.89h0Z"/><ellipse class="cls-2" cx="107.98" cy="36.29" rx="0.83" ry="1.07" transform="translate(33.44 122.42) rotate(-67.7)"/><ellipse class="cls-2" cx="120.21" cy="41.33" rx="0.83" ry="1.07" transform="translate(36.36 136.87) rotate(-67.7)"/><ellipse class="cls-2" cx="110.81" cy="39.87" rx="0.5" ry="0.52" transform="translate(31.87 127.27) rotate(-67.7)"/><ellipse class="cls-2" cx="104.64" cy="40.79" rx="0.95" ry="0.89" transform="translate(27.2 122.13) rotate(-67.7)"/><ellipse class="cls-2" cx="119.45" cy="38.29" rx="0.5" ry="0.62" transform="translate(38.69 134.27) rotate(-67.7)"/><polygon class="cls-2" points="112.93 25.69 132.67 45.44 132.28 45.83 112.53 26.08 92.78 45.83 92.39 45.44 112.14 25.69 92.39 5.94 92.78 5.55 112.53 25.3 132.28 5.55 132.67 5.94 112.93 25.69"/><path class="cls-2" d="M93.48,30.61a3.25,3.25,0,0,1,2.58,1c.28.28.57.74,1,.74s.71-.31.84-.86c.08-.34.35-1,1-.84a.42.42,0,0,1,.26.32,2.74,2.74,0,0,1-2.72,2.15c-1.72,0-2.1-1.64-3.39-1.64a1.22,1.22,0,0,0-1.1.91c-.15.38-.32.55-.91.23a5.66,5.66,0,0,1,3.39-3.22,4.25,4.25,0,0,1-3.68-4.48V22.78c0-2.33,1.33-4.53,4.37-4.53a4.25,4.25,0,0,1,4.2,4.53v2.13a4.53,4.53,0,0,1-3.54,4.5A7.64,7.64,0,0,0,93.48,30.61Zm-1-5.69c0,2.81.8,4,2.68,4s2.47-2,2.47-4V22.78c0-2.15-.66-4.05-2.49-4.05-2.12,0-2.67,1.87-2.67,4.05Z"/><path class="cls-2" d="M130.62,29.59l3-8.85h-.92v-.41h2.61v.41h-1L131,30.64h.74v.41h-3.31v-.41h.86l-3-9.3c-.09-.29-.15-.61-.57-.61h-.35v-.41h3.3v.41h-.48c-.32,0-.32.17-.17.63Z"/><path class="cls-2" d="M105.49,16.13c1.1-2,8.15-3.68,17.46-3.9Q108.9,13.3,105.49,16.13Z"/><path class="cls-2" d="M106.86,17.27c1.79-2.5,8.88-3.7,16.08-4.76C114.76,14.08,108.69,15.66,106.86,17.27Z"/><path class="cls-2" d="M108.28,18.58c2.61-3.65,15.26-6,15.26-6S114.53,14.66,108.28,18.58Z"/><path class="cls-2" d="M121,11.79h-.08V3l-4.71-3h-4.8l-4.72,3v8.84h-.22c-.76,0-1.56,0-2.39.08,0,0,4.81.14,7.29.4-.53.07-1,.14-1.5.23a48.84,48.84,0,0,0-5.78-.34s3.12.29,5,.5c-.34.07-.67.14-1,.23-1.24-.17-2.56-.29-4-.37,0,0,2.09.36,3.39.55l-.56.19q-1.34-.22-2.83-.4s1.48.4,2.39.58a3.51,3.51,0,0,0-1.79,1.39l-.18.37c2.24-3.2,18.43-3.14,18.43-3.47ZM111.41.61l2.94,1.88h-5.89Zm4.19,11.31h-3.35V10.15h-1.7v1.77h-.77c-.82-.05-1.67-.08-2.56-.08h0V3.52h8.4ZM113.17.52h2.89l3.1,2h-2.89Zm3.47,11.39V3.52h3.77V11.8h-.15C119,11.82,117.76,11.85,116.64,11.9Z"/></g></g></g></svg>