<?xml version="1.0" encoding="utf-8"?>
<!-- Generator: Adobe Illustrator 18.1.1, SVG Export Plug-In . SVG Version: 6.00 Build 0)  -->
<svg version="1.1" id="Camada_1" xmlns="http://www.w3.org/2000/svg" xmlns:xlink="http://www.w3.org/1999/xlink" x="0px" y="0px"
	 viewBox="0 0 442.2 221.1" enable-background="new 0 0 442.2 221.1" xml:space="preserve">
<g>
	<g>
		<path fill="#174634" d="M174,208.2c-0.6,0-1.1-0.2-1.3-0.7c-0.8,0.6-1.8,0.9-2.7,0.9c-2.9,0-5.3-2-5.3-6.4c0-3.9,2.6-6.5,5.5-6.5
			c1.2,0,1.7,0.3,2.5,0.9v-6.7h-1.3v-0.7c2.6,0,3.9,0.1,3.9,1.9v16.6h1.2v0.7H174z M172.6,197.5c-0.7-0.6-1.3-1-2.3-1
			c-1.5,0-2.9,1.6-2.9,4.4v2.7c0,2.9,1.3,3.9,2.8,3.9c0.7,0,1.6-0.3,2.4-0.8V197.5z"/>
		<path fill="#174634" d="M183.9,207.5c1.7,0,2.9-0.9,3.5-2.3h1c-1,2.2-2.5,3.2-4.9,3.2c-2.7,0-5.5-2.2-5.5-6.3c0-3,1.9-6.6,5.9-6.6
			c3.1,0,4.9,2.2,5,4.4c0.1,1.2-0.7,2.2-2.1,2.2h-5.9v1.1c0,2.2,0.6,3.3,1.5,3.9C182.7,207.4,183.4,207.5,183.9,207.5z M180.7,201.5
			h4c1.1,0,1.4-1.1,1.4-1.9c0-1.3-0.5-3.3-2.3-3.3c-1.8,0-3.1,1.2-3.1,3.7V201.5z"/>
		<path fill="#174634" d="M190.4,204.7c-0.1-1,0.4-1.7,1.3-1.7c0.6,0,1.3,0.4,1.2,1.3c-0.2,2.5,1,3.5,2.7,3.5c1.1,0,2.9-0.8,2.9-2.4
			c0-1-1.4-1.7-3.5-2.4c-2.5-0.8-4.1-2-4.1-3.9c0-2,2.1-3.7,5.2-3.6c2.6,0.1,3.6,1.5,3.9,2.5c0.2,0.7-0.1,1.8-1.1,1.9
			c-0.7,0-1.3-0.5-1.2-1.3c0.2-1.4-0.6-2.4-2-2.4c-1.2,0-2.9,0.7-2.9,2.2c0,1.3,2.4,1.8,3.4,2.2c2.9,1.1,4.2,2.2,4.2,4.3
			c0,2-1.8,3.7-5.2,3.5C193.1,208.4,190.7,207.2,190.4,204.7z"/>
		<path fill="#174634" d="M211.3,208.2c-0.6,0-1.1-0.2-1.3-0.7c-0.8,0.6-1.8,0.9-2.7,0.9c-2.9,0-5.3-2-5.3-6.4
			c0-3.9,2.6-6.5,5.5-6.5c1.2,0,1.7,0.3,2.5,0.9v-6.7h-1.3v-0.7c2.6,0,3.9,0.1,3.9,1.9v16.6h1.2v0.7H211.3z M210,197.5
			c-0.7-0.6-1.3-1-2.3-1c-1.5,0-2.9,1.6-2.9,4.4v2.7c0,2.9,1.3,3.9,2.8,3.9c0.7,0,1.6-0.3,2.4-0.8V197.5z"/>
		<path fill="#174634" d="M221.3,207.5c1.7,0,2.9-0.9,3.5-2.3h1c-1,2.2-2.5,3.2-4.9,3.2c-2.7,0-5.5-2.2-5.5-6.3c0-3,1.9-6.6,5.9-6.6
			c3.1,0,4.9,2.2,5,4.4c0.1,1.2-0.7,2.2-2.1,2.2h-5.9v1.1c0,2.2,0.6,3.3,1.5,3.9C220,207.4,220.8,207.5,221.3,207.5z M218.1,201.5h4
			c1.1,0,1.4-1.1,1.4-1.9c0-1.3-0.5-3.3-2.3-3.3c-1.8,0-3.1,1.2-3.1,3.7V201.5z"/>
		<path fill="#174634" d="M234.3,198.3l2.6-2.4h1.4V207c0,0.2,0.2,0.5,0.3,0.5h1.5v0.7h-6v-0.7h1.5c0.1,0,0.3-0.4,0.3-0.6v-8.8
			c-0.3,0.3-0.7,0.6-1.1,0.9L234.3,198.3z"/>
		<path fill="#174634" d="M241.8,212.4c3.4-0.8,6.3-4,7.7-6.8c-0.6,0.3-1.3,0.4-2,0.4c-2.6,0-5.1-1.9-5.1-5.2c0-3,2.4-5.2,5.2-5.2
			c3.8,0,5.3,2.6,5.3,5.5c0,5.7-6,10.8-11.1,11.8L241.8,212.4z M245,200.8c0.1,2.7,1.2,4.2,2.7,4.2c2.4,0,2.6-1.9,2.6-3.7
			c0-2.3-0.8-5-2.7-5C246,196.3,245,198.4,245,200.8z"/>
		<path fill="#174634" d="M261,198.5c0-1.1-0.4-2.1-1.6-2.1c-0.9-0.1-1.6,0.7-1.8,1.6c-0.2,0.9-0.5,1.5-1.3,1.5
			c-0.8-0.1-1.2-0.7-1-1.5c0.3-1.1,2-2.4,4.2-2.4c2.7,0,4.1,1.7,4.1,3.6c0,1.1-0.6,2.3-1.9,3.4c2,0.9,3.2,2.9,3.2,4.8
			c0,2.8-2,5.6-5.7,5.5c-2.5,0-5-1.5-5-3.9c0-0.6,0.5-1.2,1.3-1.2c0.6,0,1.1,0.4,1.1,1.2c0,2.1,1.2,3.1,2.5,3.1c2,0,2.9-2.3,2.9-4.5
			c0-2.2-0.9-4.5-3-4c-0.7,0.2-1.4,0.2-1.4-0.8C261.1,202.1,261,200.1,261,198.5z"/>
		<path fill="#174634" d="M268.4,197c0.2-0.7,0.7-1.2,1.5-1.2h7.2v2.2h-0.9v-1.4h-4.7c-0.2,0-0.4,0.2-0.5,0.4l-0.8,3.9
			c0.4-0.2,1.3-0.4,2.1-0.4c2.6,0,5.3,1.7,5.3,6.2c0,4.1-3.3,6.1-6.1,6.1c-2.3,0-4.3-1.2-5.1-3.1c-0.4-1,0.1-2,1.1-2
			c0.6,0,1.3,0.4,1.4,1.2c0.4,2,1.3,3.1,2.6,3.1c1.5,0,3.3-1,3.3-4.1v-2.6c0-2.9-1.1-4.1-2.5-4.1c-1.1,0-2,0.4-2.8,2.1
			c-0.4,0.9-0.6,1.6-1.8,1.6c-0.3,0-0.7-0.1-1.2-0.2L268.4,197z"/>
	</g>
	<g>
		<path fill="#174634" d="M17.4,168.1c4.3,0,6.7,1.4,8.6,3.4c0.9,0.9,1.9,2.5,3.5,2.5c1.3,0,2.4-1,2.8-2.9c0.3-1.1,1.2-3.5,3.4-2.8
			c0.5,0.2,0.9,0.7,0.9,1.1c0,2.4-3.4,7.1-9.1,7.2c-5.7,0.1-7-5.5-11.3-5.5c-1.5,0-3,1-3.7,3c-0.5,1.3-1.1,1.8-3,0.8
			c1.5-5.2,6.9-9,11.3-10.7c-8.4-1.4-12.3-7.8-12.3-14.9V142c0-7.8,4.4-15.1,14.6-15.1c8.9,0,14,7.3,14,15.1v7.1
			c0,6.3-3.7,13-11.8,15C22.6,165.1,20,165.9,17.4,168.1z M14.2,149.1c0,9.4,2.7,13.5,9,13.4c6.7,0,8.2-6.7,8.2-13.4V142
			c0-7.2-2.2-13.5-8.3-13.5c-7.1,0-8.9,6.2-8.9,13.5V149.1z"/>
		<path fill="#174634" d="M69.8,139.8c0,16.5-0.9,24.2-13.5,24.2c-12.7,0-13.2-7.6-13.2-23.6v-9.6c0-1,0.1-2-1-2h-1.7v-1.4h11v1.4
			h-1.6c-1.1,0-1.1,0.5-1.1,2.1v12.7c0,12.7,0.8,18.1,9.1,18.1c8.6,0.1,9.6-7.3,9.6-18.4v-14.6h-3.1v-1.4H73v1.4h-3.2V139.8z"/>
		<path fill="#174634" d="M77.7,130.9c0-1,0.1-2-1-2H75v-1.4h11v1.4h-1.6c-1.1,0-1.1,0.5-1.1,2.1v28.8c0,1.2,0.2,2.1,1.2,2.1H86v1.4
			H75v-1.4h1.5c1.2,0,1.2-0.9,1.2-2.1V130.9z"/>
		<path fill="#174634" d="M92.1,128.8h-2.4v-1.4H93c4.2,0,5,1.2,7,4.3l16.7,25v-27.9h-2.2v-1.4h6.2v1.4h-2.1v34.4h-4.4L94,133v28.8
			h2.2v1.4h-6.4v-1.4h2.4V128.8z"/>
		<path fill="#174634" d="M134.8,128.9h-4.8c-1.7,0-2.5,2.1-2.7,4.3c-0.3,1.3-1,2.6-3.8,1.7l0.4-7.5h27.5l0.4,7.7
			c-3.3,0.9-3.7-1.6-3.9-3.7c-0.3-2-1.1-2.6-2.3-2.6h-5.2v30.9c0,1.2,0.2,2.1,1.2,2.1h1.5v1.4h-11v-1.4h1.5c1.2,0,1.2-0.9,1.2-2.1
			V128.9z"/>
		<path fill="#174634" d="M167.6,127.5h3.1l10.7,32.5c0.3,0.8,0.6,1.8,1.6,1.8h1.8v1.4H174v-1.4h1.6c0.5,0,0.6-0.5,0.5-0.8
			l-3.6-11.7h-10.4l-4.4,12.5h2.7v1.4h-7.8v-1.4h3.1L167.6,127.5z M171.9,147.5l-4.4-13.6l-4.7,13.6H171.9z"/>
		<path fill="#174634" d="M203.8,128.9h-3.1v-1.4h11.7c12.1,0,15.3,10.2,15.3,18c0,9.1-3.2,17.9-15.3,17.9h-11.7v-1.4h3.1V128.9z
			 M209.4,128.9v32.9h3.1c7.3,0,9.7-7.9,9.7-13.9v-5.1c0-5.7-4-13.9-9.7-13.9H209.4z"/>
		<path fill="#174634" d="M239.5,144.4h6.8c0.5,0,1.6-0.1,1.9-3.7h1.7v9.1h-1.7c-0.1-1.5-0.3-3.9-1.9-3.9h-6.8v16h9.6
			c1.7,0,2.5-2.1,2.7-4.3c0.3-1.3,1-2.6,3.8-1.7l-0.4,7.5h-23.9v-1.4h2.6v-32.9h-2.6v-1.4h23.2l0.4,7.7c-3.2,1-3.7-1.6-3.9-3.7
			c-0.3-2-1.1-2.6-2.3-2.6h-9.2V144.4z"/>
		<path fill="#174634" d="M289.2,158.4l10.1-29.5h-3.1v-1.4h8.7v1.4h-3.2l-11.4,33h2.5v1.4h-11v-1.4h2.9l-10-31c-0.3-1-0.5-2-1.9-2
			h-1.2v-1.4h11v1.4h-1.6c-1.1,0-1.1,0.6-0.6,2.1L289.2,158.4z"/>
		<path fill="#174634" d="M308.2,148.9v-7.3c0-5,3-14.8,14.4-14.8c11.4,0,14.1,9.8,14.1,14.8v7.4c0,5-2.7,15-14.1,15
			C311.2,163.9,308.2,153.9,308.2,148.9z M314,148.9c0,4.7,1.4,13.6,8.6,13.6c7.4,0,8.5-8.8,8.5-13.6v-7.3c0-4.7-1.3-13.2-8.5-13.2
			c-7.2,0-8.6,8.5-8.6,13.2V148.9z"/>
		<path fill="#174634" d="M343.3,128.9h-3.1v-1.4H352c12.1,0,15.3,10.2,15.3,18c0,9.1-3.2,17.9-15.3,17.9h-11.7v-1.4h3.1V128.9z
			 M348.9,128.9v32.9h3.1c7.3,0,9.7-7.9,9.7-13.9v-5.1c0-5.7-4-13.9-9.7-13.9H348.9z"/>
		<path fill="#174634" d="M379.1,146.1v13.7c0,1.2,0.2,2.1,1.2,2.1h1.5v1.4h-11v-1.4h1.5c1.2,0,1.1-0.9,1.1-2.1v-30.9h-2.4v-1.4
			h12.7c7.4,0,11.1,4.9,11.1,9.6c0,3.2-2.5,6.4-5.9,8.2c5.6,1.6,6.4,7.5,6.4,13.1c0,0.6-0.4,3.9,1.1,3.6c1.1-0.3,1.6-2,1.9-4.8h1.3
			c-0.3,4.6-1.7,6.6-4.5,6.6c-2.3,0-5.4-0.8-5.4-5.1c0-5.4-0.1-12.7-7.8-12.7H379.1z M379.1,144.6h2.2c4.6-0.1,7.9-2.4,7.9-5.9v-2.9
			c0-3.2-2.6-6.7-5.7-6.9h-4.5V144.6z"/>
		<path fill="#174634" d="M416.5,127.5h3.1l10.7,32.5c0.3,0.8,0.6,1.8,1.6,1.8h1.8v1.4h-10.8v-1.4h1.6c0.5,0,0.6-0.5,0.5-0.8
			l-3.6-11.7h-10.4l-4.4,12.5h2.7v1.4h-7.8v-1.4h3.1L416.5,127.5z M420.8,147.5l-4.5-13.6l-4.7,13.6H420.8z"/>
	</g>
	<g>
		<path fill="#174634" d="M229.3,82.4C229.3,82.4,229.3,82.4,229.3,82.4C229.3,82.4,229.3,82.4,229.3,82.4
			C229.3,82.4,229.3,82.4,229.3,82.4z"/>
		<path fill="#174634" d="M229.3,82.4C229.3,82.4,229.3,82.4,229.3,82.4C229.3,82.4,229.3,82.4,229.3,82.4
			C229.3,82.4,229.3,82.4,229.3,82.4z"/>
		<path fill="#174634" d="M233.8,82.1c-0.7-0.3-1.4-0.6-2-0.8c-5.7-11.7-14.6-11.4-14.6-11.4c0,0,0,0.1,0.1,0.1l0,0
			c0.1,0.2,0.2,0.4,0.3,0.6c0.1,0.2,0.2,0.3,0.3,0.5c0.3,0.4,0.5,0.9,0.8,1.3c0.1,0.1,0.2,0.3,0.3,0.4c0.2,0.2,0.3,0.4,0.5,0.6
			c0.2,0.2,0.4,0.4,0.5,0.6c0.2,0.2,0.4,0.4,0.6,0.7c0.2,0.2,0.3,0.3,0.5,0.5c1.9,1.7,3.9,3.1,5.7,4.1c0.1,0,0.2,0.1,0.3,0.1
			c0.7,0.4,1.4,0.7,2,1c-1.7-0.5-3.3-0.8-4.7-0.9c-0.9-1.3-5.9-7.5-14-8.1c0,0,0,0,0,0c0,0,0,0,0,0.1c0,0,0,0,0,0.1c0,0,0,0,0,0.1
			c0.2,0.3,0.8,1.1,1.7,2c0.1,0.1,0.3,0.3,0.4,0.4c0.2,0.2,0.4,0.4,0.6,0.6c0.1,0.1,0.3,0.2,0.4,0.4c0.1,0.1,0.2,0.2,0.3,0.2
			c0.1,0.1,0.3,0.2,0.4,0.3c0.3,0.2,0.6,0.5,1,0.7c0.3,0.2,0.7,0.5,1.1,0.7c0.2,0.1,0.4,0.2,0.6,0.3c0,0,0,0,0,0
			c0.2,0.1,0.4,0.2,0.6,0.3c0.2,0.1,0.4,0.2,0.6,0.3c0.2,0.1,0.4,0.2,0.7,0.3c0.2,0.1,0.5,0.2,0.7,0.3c0.2,0.1,0.5,0.2,0.7,0.3
			c0.2,0.1,0.5,0.2,0.8,0.2c0.5,0.2,1,0.3,1.6,0.4c0.1,0,0.1,0,0.2,0c-4.4,0.1-6.7,1.8-7.4,2.5c0,0,0,0,0,0c-0.1,0-0.1,0.1-0.2,0.1
			c-1.1,0.2-5.9,1.4-9.5,6.1l0,0c0,0,0,0,0,0c0,0,1.7-0.4,4.1-1.7c-2.6,3-5.2,7.6-5.5,14.3c0,0,0,0,0.1,0c0,0,0,0,0,0
			c0.1-0.1,0.3-0.2,0.6-0.4c0,0,0.1-0.1,0.1-0.1c0,0,0,0,0.1,0c0,0,0.1-0.1,0.1-0.1c0.1-0.1,0.1-0.1,0.2-0.2c0.1,0,0.1-0.1,0.2-0.1
			c0.1,0,0.1-0.1,0.2-0.1c0.1,0,0.1-0.1,0.2-0.1c0.1-0.1,0.2-0.2,0.3-0.3c0.1-0.1,0.1-0.1,0.2-0.2c0.1-0.1,0.1-0.1,0.2-0.2
			c0.1-0.1,0.3-0.2,0.4-0.3c0,0,0,0,0,0c0.2-0.2,0.4-0.4,0.6-0.6c1.4-1.4,3-3.3,4.4-5.8c0.1-0.2,0.3-0.5,0.4-0.7
			c0.3-0.5,0.5-1,0.7-1.5c0.1-0.1,0.1-0.2,0.2-0.4c0.1-0.3,0.2-0.5,0.3-0.8c0.1-0.2,0.1-0.3,0.2-0.5s0.1-0.3,0.2-0.5
			c0.7-1.8,1.2-3.8,1.5-6c1.5-0.8,3-1.6,5-1.9c-1.2,1.1-8.1,8.4-7.7,19.6v0.1c0,0,0.3-0.2,0.8-0.8c0.1-0.1,0.2-0.2,0.3-0.3
			c0.2-0.2,0.4-0.4,0.6-0.7c0.1-0.1,0.2-0.2,0.3-0.3c0.6-0.8,1.3-1.9,2.1-3.2c0.1-0.2,0.2-0.4,0.3-0.5c0.1-0.2,0.2-0.5,0.3-0.7
			c0.1-0.2,0.2-0.5,0.3-0.7c0.6-1.3,1.1-2.7,1.6-4.4c0.1-0.2,0.1-0.5,0.2-0.8c0.1-0.4,0.2-0.9,0.3-1.3c0.1-0.4,0.2-0.7,0.2-1.1
			c0-0.1,0.1-0.3,0.1-0.4c0.1-0.6,0.2-1.3,0.3-1.9c0.1-0.4,0.1-0.8,0.1-1.2c0-0.4,0.1-0.9,0.1-1.4v0c0,0,0-0.1,0-0.1
			c1.5-0.2,3.3-0.2,5.4,0.2c-0.9,1.2-9,11.8-9.7,21.6c0,0,0,0,0,0c0,0,1.7-1.2,3.6-3.6c0.2-0.2,0.4-0.5,0.6-0.7
			c0.2-0.3,0.5-0.6,0.7-1c0.1-0.2,0.2-0.4,0.4-0.5c0.1-0.1,0.1-0.2,0.2-0.3c0.1-0.2,0.2-0.4,0.4-0.6c0.2-0.3,0.3-0.5,0.4-0.8
			c0.4-0.7,0.7-1.4,1.1-2.1c0,0,0,0,0,0c0.3-0.6,0.5-1.2,0.8-1.9c0.1-0.3,0.2-0.7,0.3-1c0.1-0.3,0.2-0.7,0.3-1.1
			c0.1-0.5,0.3-1,0.4-1.5c0-0.1,0-0.2,0.1-0.2c0.4-1.9,0.6-4,0.6-6.3c1.5,0.3,3.2,0.8,5.1,1.5c-0.9,0.6-7.8,5.8-5.1,20.2
			c0,0,5.3-4.5,5.3-16.4c0-1.2,0-2.4-0.2-3.7c0.7,0.3,1.5,0.6,2.3,0.9c12.2,5.2,17.5,16.8,17.5,16.8c0.4,0,0.8-0.5,0.8-0.5
			C249.7,96.2,247.2,88.1,233.8,82.1z M229.3,80.5C229.3,80.5,229.3,80.5,229.3,80.5C229.3,80.5,229.3,80.5,229.3,80.5
			C229.3,80.5,229.3,80.5,229.3,80.5z"/>
		<g>
			
				<ellipse transform="matrix(0.3795 -0.9252 0.9252 0.3795 59.0051 244.1858)" fill="#174634" cx="211.5" cy="78.1" rx="1.6" ry="2"/>
			
				<ellipse transform="matrix(0.3795 -0.9252 0.9252 0.3795 64.5009 271.3382)" fill="#174634" cx="234.5" cy="87.6" rx="1.6" ry="2"/>
			
				<ellipse transform="matrix(0.3795 -0.9252 0.9252 0.3795 56.0603 253.2869)" fill="#174634" cx="216.9" cy="84.9" rx="0.9" ry="1"/>
			
				<ellipse transform="matrix(0.3795 -0.9252 0.9252 0.3795 47.2775 243.6238)" fill="#174634" cx="205.3" cy="86.6" rx="1.8" ry="1.7"/>
			
				<ellipse transform="matrix(0.3795 -0.9252 0.9252 0.3795 68.8867 266.4658)" fill="#174634" cx="233.1" cy="81.9" rx="0.9" ry="1.2"/>
		</g>
		<g>
			<g>
				<polygon fill="#174634" points="220.8,58.2 258,95.3 257.2,96 220.1,58.9 183,96 182.2,95.3 219.4,58.2 182.2,21 183,20.3 
					220.1,57.4 257.2,20.3 258,21 				"/>
			</g>
			<g>
				<g>
					<path fill="#174634" d="M184.3,67.4c2.5,0,3.8,0.8,4.8,1.9c0.5,0.5,1.1,1.4,2,1.4c0.8,0,1.3-0.6,1.6-1.6c0.1-0.6,0.7-2,1.9-1.6
						c0.3,0.1,0.5,0.4,0.5,0.6c0,1.3-1.9,4-5.1,4c-3.2,0.1-4-3.1-6.4-3.1c-0.8,0-1.7,0.6-2.1,1.7c-0.3,0.7-0.6,1-1.7,0.4
						c0.9-2.9,3.9-5,6.4-6.1c-4.8-0.8-6.9-4.4-6.9-8.4v-4c0-4.4,2.5-8.5,8.2-8.5c5,0,7.9,4.1,7.9,8.5v4c0,3.5-2.1,7.4-6.7,8.5
						C187.2,65.8,185.7,66.2,184.3,67.4z M182.5,56.7c0,5.3,1.5,7.6,5,7.6c3.8,0,4.6-3.8,4.6-7.6v-4c0-4-1.2-7.6-4.7-7.6
						c-4,0-5,3.5-5,7.6V56.7z"/>
				</g>
				<g>
					<g>
						<path fill="#174634" d="M254.1,65.5l5.7-16.6H258v-0.8h4.9v0.8h-1.8l-6.4,18.6h1.4v0.8h-6.2v-0.8h1.6L245.8,50
							c-0.2-0.5-0.3-1.2-1.1-1.2h-0.7v-0.8h6.2v0.8h-0.9c-0.6,0-0.6,0.3-0.3,1.2L254.1,65.5z"/>
					</g>
				</g>
			</g>
		</g>
		<g>
			<g>
				<g>
					<g>
						<path fill="#174634" d="M205.7,42.4c2.1-4.1,15.8-7.6,33.8-8C221.4,35.9,210.1,38.5,205.7,42.4z"/>
					</g>
					<g>
						<path fill="#174634" d="M208.4,44.8c3.5-5.1,17.2-7.6,31.1-9.8C223.7,38.2,211.9,41.5,208.4,44.8z"/>
					</g>
					<g>
						<path fill="#174634" d="M211.1,47.5c5.1-7.5,29.5-12.4,29.5-12.4S223.2,39.4,211.1,47.5z"/>
					</g>
				</g>
				<path fill="#174634" d="M237.4,33.5v0.2c-0.2,0-0.3,0-0.4,0.1c-0.1,0-0.2,0-0.3,0c-0.1,0-0.2,0-0.3,0v-0.2
					C236.7,33.5,237,33.5,237.4,33.5z"/>
			</g>
			<g>
				<g>
					<path fill="#174634" d="M226,12.2l2.1,3.6h0L226,12.2z M226,12.2l2.1,3.6h0L226,12.2z M226,12.2l2.1,3.6h0L226,12.2z M226,12.2
						l2.1,3.6h0L226,12.2z M226,12.2l2.1,3.6h0L226,12.2z M226,12.2l2.1,3.6h0L226,12.2z"/>
					<path fill="#174634" d="M236.3,33.5v0.2c0.1,0,0.2,0,0.3,0c0.1,0,0.2,0,0.3,0c0.1,0,0.3-0.1,0.4-0.1v-0.2
						C237,33.5,236.7,33.5,236.3,33.5z"/>
					<path fill="#174634" d="M237.4,33.5v0.2c-0.2,0-0.3,0-0.4,0.1c-0.1,0-0.2,0-0.3,0c-0.1,0-0.2,0-0.3,0v-0.2c-1.1,0-2,0-2,0
						c-0.8,0-3.2,0-6,0.1V16.8h8v16.7C236.7,33.5,237,33.5,237.4,33.5V16.8h2l-14.1-6.1V9.4l-0.4-1.2l-0.4,1.2v1.1h-7V9.4l-0.4-1.2
						l-0.4,1.2v1.1h0l-11.9,6.3h1.6v16.8c-1.1,0-2.3,0.1-3.5,0.1c0,0,9.3,0.3,14.1,0.8c-1,0.1-2,0.3-2.9,0.5
						c-3.4-0.4-7.1-0.7-11.2-0.7c0,0,6,0.6,9.6,1c-0.7,0.1-1.3,0.3-1.9,0.5c-2.4-0.3-5-0.6-7.7-0.8c0.2,0,4.1,0.7,6.5,1.1
						c-0.4,0.1-0.7,0.3-1.1,0.4c-1.7-0.3-3.6-0.6-5.5-0.8c0,0,2.9,0.8,4.6,1.2c-1.8,0.8-2.9,1.8-3.5,2.9l-0.3,0.8
						c4.3-6.6,35.7-6.5,35.7-7.1C239.1,33.5,238.2,33.5,237.4,33.5z M217,11.6h7.4l2.4,4.2h-17.7L217,11.6z M227.3,33.6
						c-1,0-1.9,0-2.9,0v-4.2h-3.2v4.2c-3.3,0-5.8,0.1-5.8,0.1c0,0-4.5-0.1-6.3-0.2l-1.5,0c0,0-0.1,0-0.1,0V16.8h19.7V33.6z
						 M228.1,15.7l-2.1-3.6l8.2,3.6H228.1z"/>
				</g>
			</g>
		</g>
	</g>
</g>
</svg>
